<?xml version="1.0" encoding="UTF-8" standalone="no"?>
<svg
   width="2000"
   height="1000"
   xml:space="preserve"
   overflow="hidden"
   version="1.1"
   id="svg3"
   sodipodi:docname="roseworks_logo.svg"
   inkscape:version="1.3.2 (091e20e, 2023-11-25)"
   xmlns:inkscape="http://www.inkscape.org/namespaces/inkscape"
   xmlns:sodipodi="http://sodipodi.sourceforge.net/DTD/sodipodi-0.dtd"
   xmlns="http://www.w3.org/2000/svg"
   xmlns:svg="http://www.w3.org/2000/svg"><sodipodi:namedview
     id="namedview1"
     pagecolor="#ffffff"
     bordercolor="#000000"
     borderopacity="0.25"
     inkscape:showpageshadow="2"
     inkscape:pageopacity="0.0"
     inkscape:pagecheckerboard="0"
     inkscape:deskcolor="#d1d1d1"
     inkscape:zoom="0.53286004"
     inkscape:cx="722.51617"
     inkscape:cy="301.20479"
     inkscape:window-width="1853"
     inkscape:window-height="1009"
     inkscape:window-x="0"
     inkscape:window-y="0"
     inkscape:window-maximized="1"
     inkscape:current-layer="svg3"
     inkscape:export-bgcolor="#ffffff00"><inkscape:page
       x="0"
       y="0"
       width="2000"
       height="1000"
       id="page2"
       margin="0"
       bleed="0" /></sodipodi:namedview><defs
     id="defs1" /><rect
     style="fill:none;stroke:none;stroke-width:1.01912"
     id="rect1"
     width="2000"
     height="1000"
     x="0"
     y="0"
     inkscape:export-filename="../fca397d1/roseworks_logo_border.svg"
     inkscape:export-xdpi="96"
     inkscape:export-ydpi="96" /><g
     id="g1"
     transform="matrix(0.78191073,0,0,0.78191073,202.84633,117.01187)"
     inkscape:export-filename="roseworks_logo.svg"
     inkscape:export-xdpi="96"
     inkscape:export-ydpi="96"><path
       style="fill:none;fill-opacity:1;fill-rule:evenodd;stroke:#521634;stroke-width:20.5794;stroke-dasharray:none;stroke-opacity:1"
       id="path6"
       d="m 586.62431,611.38279 c 8.00871,-28.60529 52.6371,1.41964 59.71722,13.82969 34.91137,61.1928 -39.63105,120.107 -99.84601,129.50117 -132.98918,20.74771 -233.0931,-97.25546 -237.88688,-207.71546 -8.15149,-187.82933 190.89055,-319.15337 383.91619,-313.8678 216.92839,5.9401 394.85937,159.03229 446.89677,345.61517" /><path
       d="m 832.51795,290.44111 q 22.01963,0 31.48262,-8.18912 9.64496,-8.18912 9.64496,-26.93311 0,-18.56201 -9.64496,-26.56915 -9.46299,-8.00714 -31.48262,-8.00714 h -29.48084 v 69.69852 z m -29.48084,48.40681 V 441.66689 H 732.97463 V 169.97003 h 107.00451 q 53.68425,0 78.61557,18.01607 25.11331,18.01607 25.11331,56.95989 0,26.93311 -13.1026,44.22126 -12.92061,17.28814 -39.1258,25.47727 14.37646,3.27564 25.65925,14.9224 11.46477,11.46477 23.11152,34.94025 l 38.03392,77.15972 h -74.612 l -33.12045,-67.51476 q -10.00892,-20.38181 -20.38181,-27.84301 -10.19091,-7.4612 -27.29707,-7.4612 z m 311.00469,-59.32564 q -21.6557,0 -33.1205,15.65033 -11.2828,15.46834 -11.2828,44.76719 0,29.29886 11.2828,44.94918 11.4648,15.46834 33.1205,15.46834 21.2917,0 32.5745,-15.46834 11.2827,-15.65032 11.2827,-44.94918 0,-29.29885 -11.2827,-44.76719 -11.2828,-15.65033 -32.5745,-15.65033 z m 0,-46.587 q 52.5923,0 82.0731,28.38895 29.6629,28.38896 29.6629,78.61557 0,50.22661 -29.6629,78.61557 -29.4808,28.38895 -82.0731,28.38895 -52.7744,0 -82.6192,-28.38895 -29.6628,-28.38896 -29.6628,-78.61557 0,-50.22661 29.6628,-78.61557 29.8448,-28.38895 82.6192,-28.38895 z m 318.2838,11.28279 v 49.49869 q -20.9277,-8.73506 -40.3996,-13.10259 -19.472,-4.36753 -36.7601,-4.36753 -18.562,0 -27.661,4.73149 -8.9171,4.54951 -8.9171,14.19448 0,7.82516 6.7333,12.01071 6.9153,4.18555 24.5674,6.18733 l 11.4647,1.63783 q 50.0447,6.36931 67.3328,20.92775 17.2882,14.55844 17.2882,45.6771 0,32.57451 -24.0215,48.95275 -24.0214,16.37824 -71.7003,16.37824 -20.1998,0 -41.8555,-3.27565 -21.4737,-3.09366 -44.2212,-9.46298 V 384.707 q 19.4719,9.46298 39.8537,14.19448 20.5638,4.73149 41.6735,4.73149 19.108,0 28.7529,-5.27743 9.645,-5.27744 9.645,-15.65033 0,-8.73506 -6.7333,-12.92061 -6.5513,-4.36753 -26.3872,-6.73328 l -11.4647,-1.45584 q -43.4934,-5.45942 -60.9635,-20.19983 -17.4701,-14.74042 -17.4701,-44.7672 0,-32.39253 22.2016,-48.04285 22.2016,-15.65032 68.0607,-15.65032 18.0161,0 37.8519,2.72971 19.8359,2.7297 43.1294,8.55308 z m 266.0554,94.99381 v 18.56201 h -152.3176 q 2.3657,22.92954 16.5602,34.39431 14.1945,11.46477 39.6718,11.46477 20.5637,0 42.0374,-6.00536 21.6557,-6.18733 44.4033,-18.56201 v 50.22662 q -23.1115,8.73506 -46.2231,13.10259 -23.1115,4.54951 -46.223,4.54951 -55.3221,0 -86.0768,-28.02499 -30.5727,-28.20697 -30.5727,-78.97953 0,-49.86265 30.0268,-78.43359 30.2087,-28.57093 82.9831,-28.57093 48.0428,0 76.7957,28.9349 28.9349,28.93489 28.9349,77.3417 z m -66.9688,-21.65568 q 0,-18.562 -10.9188,-29.84479 -10.7368,-11.46477 -28.207,-11.46477 -18.9259,0 -30.7547,10.73684 -11.8287,10.55487 -14.7404,30.57272 z"
       id="text2"
       style="font-weight:700;font-size:372.696px;font-family:Aharoni, Aharoni_MSFontService, sans-serif;fill:#a42c68;stroke-width:1.50282"
       aria-label="Rose" /><g
       id="text3"
       style="font-size:342.845px;font-family:Abadi, Abadi_MSFontService, sans-serif;stroke-width:1.38243"
       aria-label="Works"
       transform="translate(253.34982,168.89989)"><path
         style="font-family:'Abyssinica SIL';-inkscape-font-specification:'Abyssinica SIL, Normal'"
         d="m 772.93615,332.02935 -52.3977,216.7892 H 695.42773 L 638.1753,358.81412 582.09469,548.81855 h -24.7759 l -55.9132,-216.7892 -19.92117,-4.01772 v -14.73162 h 78.51284 v 14.73162 l -20.42338,2.00886 q -1.84145,0.33481 -2.84588,1.84146 -1.00443,1.33923 -1.00443,3.18069 0,0.50221 0,1.00442 0.1674,0.33481 0.33481,0.83703 l 40.84677,154.68202 53.73693,-178.2861 h 26.44996 l 55.24358,183.81046 38.00088,-160.20638 q 0.16741,-0.33481 0.16741,-1.17183 0,-2.00886 -1.33924,-3.68291 -1.33924,-1.67405 -3.68291,-2.00886 l -21.59521,-2.00886 v -14.73162 h 69.9752 v 14.73162 z"
         id="path7" /><path
         style="font-family:FreeMono;-inkscape-font-specification:'FreeMono, Normal'"
         d="m 900.23076,395.52799 q 32.91312,0 55.54089,22.62777 22.62777,22.28493 22.62777,54.8552 0,31.54174 -22.97062,53.82667 -22.97061,21.94208 -55.19804,21.94208 -32.57028,0 -55.54089,-22.28493 -22.62777,-22.28492 -22.62777,-54.51235 0,-31.54174 22.62777,-53.82667 22.97061,-22.62777 55.54089,-22.62777 z m 0,14.05665 q -26.74191,0 -45.59839,18.17078 -18.51363,18.17079 -18.51363,44.22701 0,26.05622 18.51363,44.56985 18.85648,18.17078 45.59839,18.17078 26.39906,0 45.25554,-18.17078 18.85647,-18.17079 18.85647,-43.54132 0,-27.08475 -18.51363,-45.25554 -18.51363,-18.17078 -45.59838,-18.17078 z"
         id="path8" /><path
         style="font-family:'Abyssinica SIL';-inkscape-font-specification:'Abyssinica SIL, Normal'"
         d="m 1120.2671,413.05327 q -3.3481,-3.85031 -7.7007,-6.52879 -4.3525,-2.84588 -10.7139,-2.84588 -8.3702,0 -16.9079,5.69176 -8.5376,5.52436 -17.41,15.56865 v 96.42515 q 0,3.18069 2.0088,5.35696 2.0089,2.00885 5.1896,2.17626 l 22.5996,1.00443 v 13.39238 h -85.7112 v -13.05757 l 16.9078,-1.33924 q 3.0133,-0.33481 5.0222,-2.34367 2.1762,-2.00886 2.1762,-5.18955 v -119.0248 h -24.7759 v -11.21612 l 42.5209,-13.05757 h 14.062 v 30.46767 q 3.6829,-4.01772 8.8724,-9.87689 5.357,-6.02657 11.3835,-11.55093 6.0266,-5.52435 12.388,-9.37466 6.5288,-3.85031 12.5553,-3.85031 2.6785,0 5.6918,0.50221 3.0133,0.50221 5.8592,1.33924 2.8459,0.66962 5.1895,1.67405 2.5111,0.83702 4.1851,1.67404 v 33.98318 z m 141.6244,130.24092 v -13.39238 l -42.8556,-64.45085 h -19.0841 v 55.9132 q 0,3.18069 2.0088,5.18955 2.0089,2.00886 5.1896,2.34367 l 14.7316,1.00443 v 13.39238 h -77.8432 v -13.39238 l 16.7404,-1.00443 q 3.1807,-0.33481 5.1896,-2.34367 2.0088,-2.00886 2.0088,-5.18955 V 315.28887 h -25.9477 v -11.38352 l 43.86,-13.22498 h 14.0621 v 164.89371 h 6.8635 l 50.3889,-56.91763 q 0.6696,-0.83702 0.6696,-2.17626 0,-1.33924 -1.0044,-2.34366 -0.837,-1.17184 -2.5111,-1.33924 l -14.062,-1.33924 v -13.39238 h 66.6271 v 13.39238 l -21.93,2.34367 -45.3667,48.37998 59.0939,85.71125 18.0797,2.00886 v 13.39238 z m 183.1409,-49.71922 q 0,12.55536 -4.5199,22.59964 -4.52,10.04429 -12.8902,17.07529 -8.3702,6.8636 -20.5908,10.5465 -12.2205,3.68291 -27.4544,3.68291 -7.868,0 -15.4012,-1.00443 -7.3658,-0.83702 -13.7272,-2.34367 -6.194,-1.33923 -11.0487,-2.84588 -4.8548,-1.50664 -7.3658,-2.51107 v -45.5341 h 17.4101 l 4.1851,29.12843 q 5.1895,3.3481 12.7227,6.52879 7.7007,3.01328 17.7449,3.01328 7.3659,0 13.0576,-2.17626 5.6918,-2.34367 9.5421,-6.02657 4.0177,-3.68291 6.0266,-8.37024 2.1762,-4.85474 2.1762,-10.04429 0,-6.69619 -2.511,-11.55093 -2.5111,-5.02214 -7.3659,-8.87245 -4.6873,-4.01772 -11.7183,-7.53322 -6.8636,-3.6829 -15.736,-8.03543 l -4.52,-2.17626 q -9.3746,-4.51993 -16.573,-8.87245 -7.1984,-4.51993 -12.2206,-9.54207 -4.8547,-5.18955 -7.3658,-11.21613 -2.5111,-6.19397 -2.5111,-13.89459 0,-11.38353 4.0177,-20.59079 4.1852,-9.20726 12.0532,-15.56865 7.868,-6.52878 19.2515,-10.04428 11.551,-3.5155 26.45,-3.5155 7.5332,0 14.3968,0.83702 6.8636,0.83702 12.5554,2.00886 5.6917,1.17183 10.0443,2.51107 4.3525,1.33924 6.8635,2.51107 v 40.51196 h -17.9123 l -2.6784,-23.93889 q -3.6829,-2.84588 -10.8814,-5.35695 -7.1984,-2.51107 -15.2338,-2.51107 -14.2294,0 -21.093,6.52879 -6.6962,6.36138 -6.6962,16.40567 0,5.85916 1.8415,10.21169 2.0088,4.35252 6.3614,8.20283 4.5199,3.85031 11.8857,7.86803 7.3658,3.85031 18.2471,8.70505 8.8725,4.01771 16.4057,8.53764 7.5332,4.35252 13.0576,9.87688 5.5243,5.35696 8.5376,11.88574 3.1807,6.52879 3.1807,14.89903 z"
         id="path9" /></g><circle
       style="fill:#a42c68;stroke:#521634;stroke-width:15;stroke-linecap:round;stroke-linejoin:round;stroke-miterlimit:0;stroke-dasharray:none;stroke-opacity:1;paint-order:stroke fill markers"
       id="path1"
       cx="556.87329"
       cy="267.13144"
       r="90.731552" /><circle
       style="fill:#a42c68;stroke:#521634;stroke-width:15;stroke-linecap:round;stroke-linejoin:round;stroke-miterlimit:0;stroke-dasharray:none;stroke-opacity:1;paint-order:stroke fill markers"
       id="path2"
       cx="336.60791"
       cy="429.75256"
       r="75.75808" /><circle
       style="fill:#a42c68;stroke:#521634;stroke-width:15;stroke-linecap:round;stroke-linejoin:round;stroke-miterlimit:0;stroke-dasharray:none;stroke-opacity:1;paint-order:stroke fill markers"
       id="path3"
       cx="374.2919"
       cy="680.29651"
       r="61.389275" /><circle
       style="fill:#a42c68;stroke:#521634;stroke-width:15;stroke-linecap:round;stroke-linejoin:round;stroke-miterlimit:0;stroke-dasharray:none;stroke-opacity:1;paint-order:stroke fill markers"
       id="path4"
       cx="622.41064"
       cy="712.38251"
       r="49.835712" /><circle
       style="fill:#a42c68;stroke:#521634;stroke-width:15;stroke-linecap:round;stroke-linejoin:round;stroke-miterlimit:0;stroke-dasharray:none;stroke-opacity:1;paint-order:stroke fill markers"
       id="path5"
       cx="612.13794"
       cy="592.99133"
       r="40.070122" /></g></svg>
